<?xml version="1.0" encoding="UTF-8" standalone="no"?>
<!-- Created with Inkscape (http://www.inkscape.org/) -->

<svg
   xmlns:dc="http://purl.org/dc/elements/1.1/"
   xmlns:cc="http://creativecommons.org/ns#"
   xmlns:rdf="http://www.w3.org/1999/02/22-rdf-syntax-ns#"
   xmlns:svg="http://www.w3.org/2000/svg"
   xmlns="http://www.w3.org/2000/svg"
   xmlns:sodipodi="http://sodipodi.sourceforge.net/DTD/sodipodi-0.dtd"
   xmlns:inkscape="http://www.inkscape.org/namespaces/inkscape"
   id="svg3039"
   version="1.1"
   inkscape:version="0.48.4 r9939"
   width="634.7254"
   height="1439.6809"
   sodipodi:docname="IMG_20140620_234947.jpg">
  <metadata
     id="metadata3045">
    <rdf:RDF>
      <cc:Work
         rdf:about="">
        <dc:format>image/svg+xml</dc:format>
        <dc:type
           rdf:resource="http://purl.org/dc/dcmitype/StillImage" />
        <dc:title></dc:title>
      </cc:Work>
    </rdf:RDF>
  </metadata>
  <defs
     id="defs3043" />
  <sodipodi:namedview
     pagecolor="#ffffff"
     bordercolor="#666666"
     borderopacity="1"
     objecttolerance="10"
     gridtolerance="10"
     guidetolerance="10"
     inkscape:pageopacity="0"
     inkscape:pageshadow="2"
     inkscape:window-width="1596"
     inkscape:window-height="880"
     id="namedview3041"
     showgrid="false"
     fit-margin-top="0"
     fit-margin-left="0"
     fit-margin-right="0"
     fit-margin-bottom="0"
     inkscape:zoom="0.18362603"
     inkscape:cx="-577.56927"
     inkscape:cy="360.49269"
     inkscape:window-x="0"
     inkscape:window-y="18"
     inkscape:window-maximized="0"
     inkscape:current-layer="svg3039" />
  <path
     style="fill:none;stroke:#000000;stroke-width:25;stroke-linecap:butt;stroke-linejoin:miter;stroke-miterlimit:4;stroke-opacity:1;stroke-dasharray:none"
     d="m 127.78093,761.34457 c 0,0 -3.5744,-236.0855 86.0058,-426.1779 C 358.48883,28.10359 622.22543,12.5 622.22543,12.5 c 0,0 -74.6373,74.88697 -99.2754,197.2861 -24.6381,122.39914 11.5635,188.89474 11.5635,188.89474 0,0 -100.8573,44.98911 -188.8985,131.21509 -88.0411,86.22598 -149.7609,250.50914 -149.7609,250.50914 0,0 -18.6067,12.707 -40.8439,5.4459 -22.2372,-7.2611 -27.2293,-24.5064 -27.2293,-24.5064 z"
     id="path3049"
     inkscape:connector-curvature="0"
     sodipodi:nodetypes="csczczczc" />
  <path
     style="fill:none;stroke:#000000;stroke-width:25;stroke-linecap:butt;stroke-linejoin:miter;stroke-miterlimit:4;stroke-opacity:1;stroke-dasharray:none"
     d="m 13.418028,804.91137 c 0,0 46.2898,76.2419 149.760902,84.4107 103.4712,8.1688 144.3151,-29.9522 144.3151,-29.9522 0,0 89.8565,-138.8692 -114.3629,-190.6048 C -11.088272,617.02953 13.418028,804.91137 13.418028,804.91137 z"
     id="path3829"
     inkscape:connector-curvature="0"
     sodipodi:nodetypes="cscsc" />
  <path
     style="fill:none;stroke:#000000;stroke-width:25;stroke-linecap:butt;stroke-linejoin:miter;stroke-miterlimit:4;stroke-opacity:1;stroke-dasharray:none"
     d="m 108.72043,1409.4008 c 193.3675,90.1983 236.9233,-188.3077 245.0633,-264.1237 16.3376,-168.82143 -81.6877,-285.90723 -103.4711,-310.41353 -21.7834,-24.5063 -46.2898,-57.1814 -92.5795,-43.5668 -46.2897,13.6146 -46.2897,46.2897 -32.6751,87.1336 13.6146,40.8439 101.4692,177.00623 35.3981,255.95503 -77.874702,93.0528 -163.9272017,203.656 -51.7357,275.0154 z"
     id="path3831"
     inkscape:connector-curvature="0"
     sodipodi:nodetypes="ccssssc" />
</svg>
