<?xml version="1.0" encoding="UTF-8" standalone="no"?>
<!-- Created with Inkscape (http://www.inkscape.org/) -->

<svg
   xmlns:dc="http://purl.org/dc/elements/1.1/"
   xmlns:cc="http://creativecommons.org/ns#"
   xmlns:rdf="http://www.w3.org/1999/02/22-rdf-syntax-ns#"
   xmlns:svg="http://www.w3.org/2000/svg"
   xmlns="http://www.w3.org/2000/svg"
   xmlns:xlink="http://www.w3.org/1999/xlink"
   xmlns:sodipodi="http://sodipodi.sourceforge.net/DTD/sodipodi-0.dtd"
   xmlns:inkscape="http://www.inkscape.org/namespaces/inkscape"
   id="svg3039"
   version="1.1"
   inkscape:version="0.48.4 r9939"
   width="1936"
   height="2592"
   sodipodi:docname="pirate-hat.svg">
  <metadata
     id="metadata3045">
    <rdf:RDF>
      <cc:Work
         rdf:about="">
        <dc:format>image/svg+xml</dc:format>
        <dc:type
           rdf:resource="http://purl.org/dc/dcmitype/StillImage" />
        <dc:title></dc:title>
      </cc:Work>
    </rdf:RDF>
  </metadata>
  <defs
     id="defs3043">
    <linearGradient
       id="linearGradient5722">
      <stop
         style="stop-color:#793c27;stop-opacity:0.79562044;"
         offset="0"
         id="stop5724" />
      <stop
         style="stop-color:#28170b;stop-opacity:1;"
         offset="1"
         id="stop5726" />
    </linearGradient>
    <radialGradient
       inkscape:collect="always"
       xlink:href="#linearGradient5722"
       id="radialGradient5730"
       cx="956.58451"
       cy="1551.6841"
       fx="956.58451"
       fy="1551.6841"
       r="180.55925"
       gradientTransform="matrix(1.0822534,0,0,1.0588086,-81.02741,-88.907471)"
       gradientUnits="userSpaceOnUse" />
  </defs>
  <sodipodi:namedview
     pagecolor="#ffffff"
     bordercolor="#666666"
     borderopacity="1"
     objecttolerance="10"
     gridtolerance="10"
     guidetolerance="10"
     inkscape:pageopacity="0"
     inkscape:pageshadow="2"
     inkscape:window-width="1916"
     inkscape:window-height="1020"
     id="namedview3041"
     showgrid="false"
     inkscape:zoom="0.50147604"
     inkscape:cx="935.58455"
     inkscape:cy="1146.3638"
     inkscape:window-x="0"
     inkscape:window-y="39"
     inkscape:window-maximized="0"
     inkscape:current-layer="svg3039" />
  <path
     style="fill:none;stroke:#000000;stroke-width:5;stroke-linecap:butt;stroke-linejoin:miter;stroke-miterlimit:4;stroke-opacity:1;stroke-dasharray:none"
     d="M 1426.9667,1959.7214 C 1086.7692,1824.121 781.20165,1824.7602 494.002,1959.0403 412.37032,1935.1804 346.9973,1901.7888 320.50675,1781.2584 588.4487,1617.3498 747.70791,1385.7767 830.91826,1034.2663 c 87.488,-57.04001 176.28544,-53.94169 249.59614,-12.6963 76.1697,348.5734 240.5605,591.9108 512.0616,747.1862 -7.441,119.326 -68.4105,170.4232 -165.6093,190.9652 z"
     id="path3228-7"
     inkscape:connector-curvature="0"
     sodipodi:nodetypes="ccccccc" />
  <path
     sodipodi:type="arc"
     style="stroke-width:5;stroke-miterlimit:4;stroke-dasharray:none"
     id="path4046"
     sodipodi:cx="1018.509"
     sodipodi:cy="1537.5344"
     sodipodi:rx="168.46419"
     sodipodi:ry="167.01196"
     d="m 1186.9732,1537.5344 a 168.46419,167.01196 0 1 1 -336.92842,0 168.46419,167.01196 0 1 1 336.92842,0 z"
     transform="matrix(1.0787425,0,0,1.0728082,-142.08555,-98.105563)" />
  <path
     style="fill:none;stroke:#000000;stroke-width:5;stroke-linecap:butt;stroke-linejoin:miter;stroke-miterlimit:4;stroke-opacity:1;stroke-dasharray:none"
     d="M 1595.5534,1766.9504 C 1200.8528,1705.3741 1044.435,1447.9512 1080.1659,1021.1017"
     id="path4050"
     inkscape:connector-curvature="0"
     sodipodi:nodetypes="cc" />
  <path
     style="fill:none;stroke:#000000;stroke-width:5;stroke-linecap:butt;stroke-linejoin:miter;stroke-miterlimit:4;stroke-opacity:1;stroke-dasharray:none"
     d="M 1426.2081,1959.2301 C 979.70378,1607.0766 740.2059,1787.8168 494.32168,1958.6773"
     id="path4052"
     inkscape:connector-curvature="0"
     sodipodi:nodetypes="cc" />
  <path
     style="fill:none;stroke:#000000;stroke-width:5;stroke-linecap:butt;stroke-linejoin:miter;stroke-miterlimit:4;stroke-opacity:1;stroke-dasharray:none"
     d="m 320.11945,1783.6964 c 421.89317,-71.3279 547.59504,-355.0696 510.11952,-750.285"
     id="path4054"
     inkscape:connector-curvature="0"
     sodipodi:nodetypes="cc" />
  <path
     style="stroke-width:5;stroke-miterlimit:4;stroke-dasharray:none;fill:#000000"
     d=""
     id="path4074"
     inkscape:connector-curvature="0" />
  <path
     style="fill:#502d16;stroke-width:5;stroke-miterlimit:4;stroke-dasharray:none;fill-opacity:1"
     d="m 1384.6523,1940.3923 c -44.3726,-16.8691 -105.525,-35.7638 -156.9726,-48.5009 -107.3401,-26.5748 -201.321,-37.7436 -303.9962,-36.1272 -84.43717,1.3294 -156.04164,10.6195 -235.41927,30.5439 -48.04481,12.0597 -107.93751,31.9756 -150.2156,49.9508 -5.68576,2.4174 -10.54504,4.188 -10.79841,3.9346 -0.60915,-0.6091 63.9672,-44.3239 91.33163,-61.8266 118.23257,-75.6235 207.67049,-109.4621 308.97069,-116.8982 108.19976,-7.9425 229.24036,26.9221 355.95196,102.5287 35.2637,21.0413 104.5102,68.3192 120.4377,82.2287 2.2501,1.9649 -2.7672,0.4476 -19.2899,-5.8338 z"
     id="path4106"
     inkscape:connector-curvature="0" />
  <path
     style="fill:#28170b;fill-opacity:1;stroke-width:5;stroke-miterlimit:4;stroke-dasharray:none"
     d="m 1409.8562,1942.817 c -63.4036,-49.1057 -136.5224,-95.2066 -196.5894,-123.9485 -97.684,-46.7414 -184.743,-67.0509 -273.44533,-63.7904 -61.16374,2.2482 -114.73252,14.0809 -176.09535,38.8973 -67.61562,27.3452 -133.87511,66.2822 -245.96057,144.5374 -12.46385,8.7019 -23.40771,16.0076 -24.3197,16.2348 -2.40052,0.598 -32.5776,-9.5047 -48.16712,-16.1254 -53.55289,-22.7436 -88.97135,-60.0891 -109.23885,-115.1823 -4.18094,-11.365 -8.89282,-26.9411 -10.10576,-33.4067 -0.86467,-4.609 -2.66518,-3.8642 19.14154,-7.9186 82.63338,-15.3634 164.33417,-44.2552 227.14097,-80.3237 153.27282,-88.0209 239.0328,-230.2418 261.69367,-433.9822 6.4228,-57.7463 7.06195,-138.8865 1.62623,-206.45 -0.88046,-10.9439 -1.58989,-21.1416 -1.57649,-22.6615 0.0202,-2.2877 1.68468,-3.7543 9.66558,-8.516 12.86405,-7.6753 34.72573,-17.9582 48.33163,-22.7333 25.14558,-8.82511 48.62217,-12.9172 74.28427,-12.94813 35.48898,-0.0428 65.55498,6.87193 98.47658,22.64823 l 12.4719,5.9766 -0.6249,6.9572 c -2.4269,27.0192 -2.9738,40.4345 -3.5279,86.5489 -0.6303,52.4565 0.1472,77.5374 3.564,114.9659 14.9222,163.4622 69.7426,290.5115 164.083,380.2716 17.721,16.8605 26.0564,24.0184 42.0464,36.1065 76.6156,57.9199 173.5404,97.4363 289.6254,118.0808 18.6906,3.3239 16.9814,1.8739 16.0621,13.6255 -0.949,12.1303 -3.9678,30.1149 -7.1203,42.4199 -17.5261,68.4077 -61.6695,110.2279 -137.4814,130.246 -8.0382,2.1225 -15.1124,3.8324 -15.7204,3.7998 -0.608,-0.033 -8.8159,-6.031 -18.2398,-13.3297 l 0,0 z M 983.57692,1728.9736 c 40.21908,-6.2181 74.23778,-23.2565 102.41688,-51.296 14.44,-14.3684 24.7459,-28.6565 34.0662,-47.2293 27.3376,-54.4767 24.2894,-120.9831 -7.9188,-172.7733 -20.7059,-33.2945 -54.2548,-60.792 -90.4561,-74.1399 -21.3481,-7.8713 -41.16375,-11.3187 -65.05957,-11.3187 -23.89581,0 -43.71145,3.4474 -65.05957,11.3187 -36.20126,13.3479 -69.75023,40.8454 -90.45607,74.1399 -27.69628,44.5351 -34.08992,100.036 -17.30598,150.2271 8.74381,26.1477 23.62863,50.0491 43.45334,69.7755 27.6246,27.4877 60.06691,44.0565 99.52138,50.8271 15.10097,2.5914 41.65187,2.8106 56.79829,0.4689 l 0,0 z"
     id="path4108"
     inkscape:connector-curvature="0" />
  <path
     style="fill:#502d16;fill-opacity:1;stroke-width:5;stroke-miterlimit:4;stroke-dasharray:none"
     d="m 1550.5828,1755.4975 c -28.1435,-6.3722 -57.1079,-13.6656 -71.1315,-17.9112 -186.5631,-56.4813 -305.6891,-167.5724 -362.5571,-338.1028 -17.6807,-53.0191 -29.3493,-113.3324 -35.5757,-183.8845 -2.3081,-26.1535 -2.7673,-129.5238 -0.691,-155.5512 l 1.3719,-17.1966 7.4189,29.7032 c 46.6363,186.7173 120.8849,341.8311 223.3742,466.6538 66.4652,80.9487 152.5603,155.9565 240.8571,209.8395 15.8842,9.6933 15.4346,10.6389 -3.0668,6.4498 z"
     id="path4110"
     inkscape:connector-curvature="0" />
  <path
     style="fill:#502d16;fill-opacity:1;stroke-width:5;stroke-miterlimit:4;stroke-dasharray:none"
     d="m 353.85421,1763.995 c 174.9444,-113.1758 305.67933,-266.9912 391.52257,-460.6433 29.47484,-66.4917 60.99134,-157.5778 77.42351,-223.7623 2.2415,-9.0282 4.54983,-17.4702 5.12963,-18.76 3.41449,-7.5956 6.3017,115.4918 3.66703,156.333 -5.60964,86.9577 -18.74166,154.4567 -42.58069,218.8661 -9.99768,27.0121 -33.97485,75.6081 -48.17145,97.6318 -22.50203,34.9083 -47.81582,65.2438 -78.35281,93.8963 -59.37994,55.7157 -138.37442,98.8655 -233.192,127.3785 -23.79355,7.1551 -74.47656,19.4103 -87.17076,21.078 l -8.59831,1.1296 20.32328,-13.1477 z"
     id="path4112"
     inkscape:connector-curvature="0" />
  <path
     style="fill:url(#radialGradient5730);fill-opacity:1;stroke-width:5;stroke-miterlimit:4;stroke-dasharray:none"
     d="M 930.48031,1743.7682 C 825.70194,1730.4261 749.46,1637.8265 759.76078,1536.421 c 6.22048,-61.2372 38.94736,-113.0247 91.91811,-145.4528 29.2722,-17.9201 58.80703,-26.6201 94.87465,-27.9471 36.59463,-1.3465 67.55946,5.2909 97.63116,20.9273 122.109,63.4933 142.1673,223.6549 39.2294,313.24 -40.9294,35.62 -99.32547,53.4061 -152.93379,46.5798 z"
     id="path4114"
     inkscape:connector-curvature="0" />
</svg>
