<?xml version="1.0" encoding="UTF-8" standalone="no"?>
<!-- Created with Inkscape (http://www.inkscape.org/) -->

<svg
   xmlns:dc="http://purl.org/dc/elements/1.1/"
   xmlns:cc="http://creativecommons.org/ns#"
   xmlns:rdf="http://www.w3.org/1999/02/22-rdf-syntax-ns#"
   xmlns:svg="http://www.w3.org/2000/svg"
   xmlns="http://www.w3.org/2000/svg"
   xmlns:xlink="http://www.w3.org/1999/xlink"
   xmlns:sodipodi="http://sodipodi.sourceforge.net/DTD/sodipodi-0.dtd"
   xmlns:inkscape="http://www.inkscape.org/namespaces/inkscape"
   width="744.09448819"
   height="1052.3622047"
   id="svg2"
   version="1.1"
   inkscape:version="0.48.4 r9939"
   sodipodi:docname="upper-leg.svg">
  <defs
     id="defs4">
    <linearGradient
       inkscape:collect="always"
       id="linearGradient3010">
      <stop
         style="stop-color:#4d4d4d;stop-opacity:1;"
         offset="0"
         id="stop3012" />
      <stop
         style="stop-color:#4d4d4d;stop-opacity:0;"
         offset="1"
         id="stop3014" />
    </linearGradient>
    <linearGradient
       inkscape:collect="always"
       xlink:href="#linearGradient3010"
       id="linearGradient3016"
       x1="109.10715"
       y1="461.46933"
       x2="131.42857"
       y2="353.07648"
       gradientUnits="userSpaceOnUse" />
  </defs>
  <sodipodi:namedview
     id="base"
     pagecolor="#ffffff"
     bordercolor="#666666"
     borderopacity="1.0"
     inkscape:pageopacity="0.0"
     inkscape:pageshadow="2"
     inkscape:zoom="5.6"
     inkscape:cx="191.44136"
     inkscape:cy="593.14224"
     inkscape:document-units="px"
     inkscape:current-layer="layer1"
     showgrid="false"
     inkscape:window-width="1916"
     inkscape:window-height="1020"
     inkscape:window-x="0"
     inkscape:window-y="39"
     inkscape:window-maximized="0" />
  <metadata
     id="metadata7">
    <rdf:RDF>
      <cc:Work
         rdf:about="">
        <dc:format>image/svg+xml</dc:format>
        <dc:type
           rdf:resource="http://purl.org/dc/dcmitype/StillImage" />
        <dc:title></dc:title>
      </cc:Work>
    </rdf:RDF>
  </metadata>
  <g
     inkscape:label="Layer 1"
     inkscape:groupmode="layer"
     id="layer1">
    <path
       style="fill:none;stroke:#000000;stroke-width:1px;stroke-linecap:butt;stroke-linejoin:miter;stroke-opacity:1"
       d="m 115.54517,420.12924 c 2.07762,-9.71635 14.57114,-6.54566 23.85588,-2.14286 -5.89777,30.35687 12.56807,72.61291 0.50508,77.27667 -9.73715,3.21605 -17.51929,4.94643 -25.43239,0.89286 -2.5803,-14.28842 -10.45409,-22.12553 1.07143,-76.02667 z"
       id="path2987"
       inkscape:connector-curvature="0"
       sodipodi:nodetypes="scccs" />
    <path
       style="fill:url(#linearGradient3016);stroke:#000000;stroke-width:0.17857143000000000;stroke-opacity:1;fill-opacity:1"
       d="m 122.86993,497.81548 c -3.1777,-0.17392 -7.67222,-1.54443 -7.91263,-2.41279 -0.0506,-0.18258 -0.18653,-0.77392 -0.30218,-1.3141 -0.11566,-0.54018 -0.80213,-3.27232 -1.5255,-6.07143 -1.42497,-5.51396 -2.04119,-8.48895 -2.4782,-11.96428 -1.5241,-12.12045 -0.10245,-28.17239 4.52708,-51.11586 1.26487,-6.26855 1.52553,-7.01336 2.95459,-8.44241 1.43452,-1.43452 3.23042,-2.04625 6.07612,-2.06968 2.76977,-0.0228 5.51878,0.50211 9.01786,1.72192 1.94725,0.67882 5.1779,1.998 5.38905,2.20051 0.0667,0.0639 0.0451,0.51802 -0.0478,1.00909 -0.76107,4.02082 -1.09849,13.12154 -0.71135,19.18635 0.44295,6.93896 1.01306,11.5705 3.04563,24.74222 2.16346,14.01994 2.50377,16.93342 2.51768,21.55404 0.013,4.31873 -0.50409,6.69552 -1.81841,8.35826 -0.89754,1.13547 -1.44975,1.40513 -5.0994,2.49014 -3.61987,1.07616 -6.3511,1.69349 -8.63252,1.95116 -2.56803,0.29005 -2.78907,0.29787 -5,0.17686 l 0,0 z"
       id="path3008"
       inkscape:connector-curvature="0" />
  </g>
</svg>
