<?xml version="1.0" encoding="UTF-8" standalone="no"?>
<!-- Created with Inkscape (http://www.inkscape.org/) -->

<svg
   xmlns:dc="http://purl.org/dc/elements/1.1/"
   xmlns:cc="http://creativecommons.org/ns#"
   xmlns:rdf="http://www.w3.org/1999/02/22-rdf-syntax-ns#"
   xmlns:svg="http://www.w3.org/2000/svg"
   xmlns="http://www.w3.org/2000/svg"
   xmlns:xlink="http://www.w3.org/1999/xlink"
   xmlns:sodipodi="http://sodipodi.sourceforge.net/DTD/sodipodi-0.dtd"
   xmlns:inkscape="http://www.inkscape.org/namespaces/inkscape"
   id="svg3039"
   version="1.1"
   inkscape:version="0.48.4 r9939"
   width="1280.434"
   height="973.74847"
   sodipodi:docname="hat.svg">
  <metadata
     id="metadata3045">
    <rdf:RDF>
      <cc:Work
         rdf:about="">
        <dc:format>image/svg+xml</dc:format>
        <dc:type
           rdf:resource="http://purl.org/dc/dcmitype/StillImage" />
        <dc:title />
      </cc:Work>
    </rdf:RDF>
  </metadata>
  <defs
     id="defs3043">
    <linearGradient
       id="linearGradient5722">
      <stop
         style="stop-color:#793c27;stop-opacity:0.79562044;"
         offset="0"
         id="stop5724" />
      <stop
         style="stop-color:#28170b;stop-opacity:1;"
         offset="1"
         id="stop5726" />
    </linearGradient>
    <radialGradient
       inkscape:collect="always"
       xlink:href="#linearGradient5722"
       id="radialGradient5730"
       cx="956.58453"
       cy="1551.6841"
       fx="956.58453"
       fy="1551.6841"
       r="180.55925"
       gradientTransform="matrix(1.0822534,0,0,1.0588086,-398.64686,-1077.3804)"
       gradientUnits="userSpaceOnUse" />
  </defs>
  <sodipodi:namedview
     pagecolor="#ffffff"
     bordercolor="#666666"
     borderopacity="1"
     objecttolerance="10"
     gridtolerance="10"
     guidetolerance="10"
     inkscape:pageopacity="0"
     inkscape:pageshadow="2"
     inkscape:window-width="1916"
     inkscape:window-height="1020"
     id="namedview3041"
     showgrid="false"
     inkscape:zoom="0.50147604"
     inkscape:cx="617.9651"
     inkscape:cy="516.5852"
     inkscape:window-x="0"
     inkscape:window-y="39"
     inkscape:window-maximized="0"
     inkscape:current-layer="svg3039"
     fit-margin-top="0"
     fit-margin-left="0"
     fit-margin-right="0"
     fit-margin-bottom="0" />
  <path
     style="fill:none;stroke:#000000;stroke-width:5;stroke-linecap:butt;stroke-linejoin:miter;stroke-miterlimit:4;stroke-opacity:1;stroke-dasharray:none"
     d="M 1109.3473,971.24847 C 769.14975,835.64807 463.5822,836.28727 176.38255,970.56737 94.75087,946.70747 29.37785,913.31587 2.8873,792.78547 270.82925,628.87687 430.08846,397.30377 513.29881,45.793368 c 87.488,-57.04001 176.28544,-53.9416901 249.59614,-12.6963 76.1697,348.573402 240.56055,591.910802 512.06165,747.186202 -7.441,119.326 -68.4105,170.4232 -165.6093,190.9652 z"
     id="path3228-7"
     inkscape:connector-curvature="0"
     sodipodi:nodetypes="ccccccc" />
  <path
     sodipodi:type="arc"
     style="stroke-width:5;stroke-miterlimit:4;stroke-dasharray:none"
     id="path4046"
     sodipodi:cx="1018.509"
     sodipodi:cy="1537.5344"
     sodipodi:rx="168.46419"
     sodipodi:ry="167.01196"
     d="m 1186.9732,1537.5344 a 168.46419,167.01196 0 1 1 -336.92842,0 168.46419,167.01196 0 1 1 336.92842,0 z"
     transform="matrix(1.0787425,0,0,1.0728082,-459.705,-1086.5785)" />
  <path
     style="fill:none;stroke:#000000;stroke-width:5;stroke-linecap:butt;stroke-linejoin:miter;stroke-miterlimit:4;stroke-opacity:1;stroke-dasharray:none"
     d="M 1277.934,778.47747 C 883.23335,716.90117 726.81555,459.47827 762.54645,32.628768"
     id="path4050"
     inkscape:connector-curvature="0"
     sodipodi:nodetypes="cc" />
  <path
     style="fill:none;stroke:#000000;stroke-width:5;stroke-linecap:butt;stroke-linejoin:miter;stroke-miterlimit:4;stroke-opacity:1;stroke-dasharray:none"
     d="M 1108.5887,970.75717 C 662.08433,618.60367 422.58645,799.34387 176.70223,970.20437"
     id="path4052"
     inkscape:connector-curvature="0"
     sodipodi:nodetypes="cc" />
  <path
     style="fill:none;stroke:#000000;stroke-width:5;stroke-linecap:butt;stroke-linejoin:miter;stroke-miterlimit:4;stroke-opacity:1;stroke-dasharray:none"
     d="M 2.5,795.22347 C 424.39317,723.89557 550.09504,440.15387 512.61952,44.938468"
     id="path4054"
     inkscape:connector-curvature="0"
     sodipodi:nodetypes="cc" />
  <path
     style="fill:#000000;stroke-width:5;stroke-miterlimit:4;stroke-dasharray:none"
     d=""
     id="path4074"
     inkscape:connector-curvature="0" />
  <path
     style="fill:#502d16;fill-opacity:1;stroke-width:5;stroke-miterlimit:4;stroke-dasharray:none"
     d="m 1067.0329,951.91937 c -44.3726,-16.8691 -105.52505,-35.7638 -156.97265,-48.5009 -107.3401,-26.5748 -201.321,-37.7436 -303.9962,-36.1272 -84.43717,1.3294 -156.04164,10.6195 -235.41927,30.5439 -48.04481,12.0597 -107.93751,31.9756 -150.2156,49.9508 -5.68576,2.4174 -10.54504,4.188 -10.79841,3.9346 -0.60915,-0.6091 63.9672,-44.3239 91.33163,-61.8266 118.23257,-75.6235 207.67049,-109.4621 308.97069,-116.8982 108.19976,-7.9425 229.24036,26.9221 355.95196,102.5287 35.26375,21.0413 104.51025,68.3192 120.43775,82.2287 2.2501,1.9649 -2.7672,0.4476 -19.2899,-5.8338 z"
     id="path4106"
     inkscape:connector-curvature="0" />
  <path
     style="fill:#28170b;fill-opacity:1;stroke-width:5;stroke-miterlimit:4;stroke-dasharray:none"
     d="m 1092.2368,954.34407 c -63.4036,-49.1057 -136.52245,-95.2066 -196.58945,-123.9485 -97.684,-46.7414 -184.743,-67.0509 -273.44533,-63.7904 -61.16374,2.2482 -114.73252,14.0809 -176.09535,38.8973 -67.61562,27.3452 -133.87511,66.2822 -245.96057,144.5374 -12.46385,8.7019 -23.40771,16.0076 -24.3197,16.2348 -2.40052,0.598 -32.5776,-9.5047 -48.16712,-16.1254 -53.55289,-22.7436 -88.97135,-60.0891 -109.23885,-115.1823 -4.18094,-11.365 -8.89282,-26.9411 -10.10576,-33.4067 -0.86467,-4.609 -2.66518,-3.8642 19.14154,-7.9186 82.63338,-15.3634 164.33417,-44.2552 227.14097,-80.3237 153.27282,-88.0209 239.0328,-230.2418 261.69367,-433.9822 6.4228,-57.7463 7.06195,-138.8865 1.62623,-206.450002 -0.88046,-10.9439 -1.58989,-21.1416 -1.57649,-22.6615 0.0202,-2.2877 1.68468,-3.7543 9.66558,-8.516 12.86405,-7.6753 34.72573,-17.9582 48.33163,-22.7333 25.14558,-8.82511 48.62217,-12.9172001 74.28427,-12.9481301 35.48898,-0.0428 65.55498,6.8719301 98.47658,22.6482301 l 12.4719,5.9766 -0.6249,6.9572 c -2.4269,27.0192 -2.9738,40.4345 -3.5279,86.548902 -0.6303,52.4565 0.1472,77.5374 3.564,114.9659 14.9222,163.4622 69.7426,290.5115 164.083,380.2716 17.721,16.8605 26.0564,24.0184 42.0464,36.1065 76.61565,57.9199 173.54045,97.4363 289.62535,118.0808 18.6906,3.3239 16.9814,1.8739 16.0622,13.6255 -0.9491,12.1303 -3.9678,30.1149 -7.1203,42.4199 -17.5262,68.4077 -61.6695,110.2279 -137.4815,130.246 -8.0382,2.1225 -15.1124,3.8324 -15.7204,3.7998 -0.6079,-0.033 -8.8159,-6.031 -18.2398,-13.3297 l 0,0 z M 665.95747,740.50067 c 40.21908,-6.2181 74.23778,-23.2565 102.41688,-51.296 14.44,-14.3684 24.7459,-28.6565 34.0662,-47.2293 27.3376,-54.4767 24.2894,-120.9831 -7.9188,-172.7733 -20.7059,-33.2945 -54.2548,-60.792 -90.4561,-74.1399 -21.3481,-7.8713 -41.16375,-11.3187 -65.05957,-11.3187 -23.89581,0 -43.71145,3.4474 -65.05957,11.3187 -36.20126,13.3479 -69.75023,40.8454 -90.45607,74.1399 -27.69628,44.5351 -34.08992,100.036 -17.30598,150.2271 8.74381,26.1477 23.62863,50.0491 43.45334,69.7755 27.6246,27.4877 60.06691,44.0565 99.52138,50.8271 15.10097,2.5914 41.65187,2.8106 56.79829,0.4689 l 0,0 z"
     id="path4108"
     inkscape:connector-curvature="0" />
  <path
     style="fill:#502d16;fill-opacity:1;stroke-width:5;stroke-miterlimit:4;stroke-dasharray:none"
     d="m 1232.9634,767.02457 c -28.1435,-6.3722 -57.1079,-13.6656 -71.1315,-17.9112 -186.56315,-56.4813 -305.68915,-167.5724 -362.55715,-338.1028 -17.6807,-53.0191 -29.3493,-113.3324 -35.5757,-183.8845 -2.3081,-26.1535 -2.7673,-129.523802 -0.691,-155.551202 l 1.3719,-17.1966 7.4189,29.7032 c 46.6363,186.717302 120.8849,341.831102 223.3742,466.653802 66.46525,80.9487 152.56035,155.9565 240.85705,209.8395 15.8842,9.6933 15.4346,10.6389 -3.0668,6.4498 z"
     id="path4110"
     inkscape:connector-curvature="0" />
  <path
     style="fill:#502d16;fill-opacity:1;stroke-width:5;stroke-miterlimit:4;stroke-dasharray:none"
     d="m 36.23476,775.52207 c 174.9444,-113.1758 305.67933,-266.9912 391.52257,-460.6433 29.47484,-66.4917 60.99134,-157.5778 77.42351,-223.762302 2.2415,-9.0282 4.54983,-17.4702 5.12963,-18.76 3.41449,-7.5956 6.3017,115.491802 3.66703,156.333002 -5.60964,86.9577 -18.74166,154.4567 -42.58069,218.8661 -9.99768,27.0121 -33.97485,75.6081 -48.17145,97.6318 -22.50203,34.9083 -47.81582,65.2438 -78.35281,93.8963 -59.37994,55.7157 -138.37442,98.8655 -233.192,127.3785 -23.79355,7.1551 -74.47656,19.4103 -87.17076,21.078 l -8.59831,1.1296 20.32328,-13.1477 z"
     id="path4112"
     inkscape:connector-curvature="0" />
  <path
     style="fill:url(#radialGradient5730);fill-opacity:1;stroke-width:5;stroke-miterlimit:4;stroke-dasharray:none"
     d="m 612.86086,755.29527 c -104.77837,-13.3421 -181.02031,-105.9417 -170.71953,-207.3472 6.22048,-61.2372 38.94736,-113.0247 91.91811,-145.4528 29.2722,-17.9201 58.80703,-26.6201 94.87465,-27.9471 36.59463,-1.3465 67.55946,5.2909 97.63116,20.9273 122.109,63.4933 142.1673,223.6549 39.2294,313.24 -40.9294,35.62 -99.32547,53.4061 -152.93379,46.5798 z"
     id="path4114"
     inkscape:connector-curvature="0" />
</svg>
