<?xml version="1.0" encoding="UTF-8" standalone="no"?>
<!-- Created with Inkscape (http://www.inkscape.org/) -->

<svg
   xmlns:dc="http://purl.org/dc/elements/1.1/"
   xmlns:cc="http://creativecommons.org/ns#"
   xmlns:rdf="http://www.w3.org/1999/02/22-rdf-syntax-ns#"
   xmlns:svg="http://www.w3.org/2000/svg"
   xmlns="http://www.w3.org/2000/svg"
   xmlns:xlink="http://www.w3.org/1999/xlink"
   xmlns:sodipodi="http://sodipodi.sourceforge.net/DTD/sodipodi-0.dtd"
   xmlns:inkscape="http://www.inkscape.org/namespaces/inkscape"
   width="82.582359"
   height="183.76219"
   id="svg2"
   version="1.1"
   inkscape:version="0.48.4 r9939"
   sodipodi:docname="woodenleg.svg">
  <defs
     id="defs4">
    <linearGradient
       id="linearGradient3783">
      <stop
         style="stop-color:#803300;stop-opacity:1;"
         offset="0"
         id="stop3785" />
      <stop
         style="stop-color:#181a00;stop-opacity:1;"
         offset="1"
         id="stop3787" />
    </linearGradient>
    <linearGradient
       inkscape:collect="always"
       xlink:href="#linearGradient3783"
       id="linearGradient3791"
       x1="358.30646"
       y1="625.56842"
       x2="356.87753"
       y2="455.4567"
       gradientUnits="userSpaceOnUse" />
  </defs>
  <sodipodi:namedview
     id="base"
     pagecolor="#ffffff"
     bordercolor="#666666"
     borderopacity="1.0"
     inkscape:pageopacity="0.0"
     inkscape:pageshadow="2"
     inkscape:zoom="1.979899"
     inkscape:cx="-95.867922"
     inkscape:cy="93.833163"
     inkscape:document-units="px"
     inkscape:current-layer="layer1"
     showgrid="false"
     fit-margin-top="0"
     fit-margin-left="0"
     fit-margin-right="0"
     fit-margin-bottom="0"
     inkscape:window-width="1916"
     inkscape:window-height="1020"
     inkscape:window-x="0"
     inkscape:window-y="39"
     inkscape:window-maximized="0" />
  <metadata
     id="metadata7">
    <rdf:RDF>
      <cc:Work
         rdf:about="">
        <dc:format>image/svg+xml</dc:format>
        <dc:type
           rdf:resource="http://purl.org/dc/dcmitype/StillImage" />
        <dc:title></dc:title>
      </cc:Work>
    </rdf:RDF>
  </metadata>
  <g
     inkscape:label="Layer 1"
     inkscape:groupmode="layer"
     id="layer1"
     transform="translate(-309.77272,-490.74603)">
    <path
       sodipodi:type="arc"
       style="fill:#3f2323;fill-opacity:1;fill-rule:nonzero;stroke:#000000;stroke-opacity:1"
       id="path3001"
       sodipodi:cx="351.53308"
       sodipodi:cy="560.41791"
       sodipodi:rx="34.345188"
       sodipodi:ry="31.31473"
       d="m 385.87827,560.41791 c 0,17.29465 -15.37687,31.31473 -34.34519,31.31473 -18.96832,0 -34.34519,-14.02008 -34.34519,-31.31473 0,-17.29465 15.37687,-31.31473 34.34519,-31.31473 18.96832,0 34.34519,14.02008 34.34519,31.31473 z"
       transform="matrix(0.60991406,0,0,0.69761821,137.12812,121.96016)" />
    <path
       sodipodi:type="arc"
       style="fill:url(#linearGradient3791);fill-opacity:1;fill-rule:nonzero;stroke:#000000;stroke-opacity:1"
       id="path3003"
       sodipodi:cx="359.64285"
       sodipodi:cy="637.7193"
       sodipodi:rx="16.071428"
       sodipodi:ry="78.928574"
       d="m 375.71428,637.7193 c 0,43.59105 -7.19542,78.92857 -16.07143,78.92857 -8.876,0 -16.07143,-35.33752 -16.07143,-78.92857 0,-43.59105 7.19543,-78.92857 16.07143,-78.92857 8.87601,0 16.07143,35.33752 16.07143,78.92857 z"
       transform="matrix(1.2189954,0,0,0.99934296,-87.33157,-49.580993)" />
    <path
       sodipodi:type="arc"
       style="fill:#693300;fill-opacity:1;fill-rule:nonzero;stroke:#000000;stroke-opacity:1"
       id="path2987"
       sodipodi:cx="347.49246"
       sodipodi:cy="694.76819"
       sodipodi:rx="92.934036"
       sodipodi:ry="94.954338"
       d="m 440.4265,694.76819 c 0,52.44183 -41.60799,94.95434 -92.93404,94.95434 -51.32605,0 -92.93403,-42.51251 -92.93403,-94.95434 0,-52.44183 41.60798,-94.95434 92.93403,-94.95434 51.32605,0 92.93404,42.51251 92.93404,94.95434 z"
       transform="matrix(0.44194728,0,0,0.4350147,197.49055,330.74808)" />
  </g>
</svg>
