<?xml version="1.0" encoding="UTF-8" standalone="no"?>
<!-- Created with Inkscape (http://www.inkscape.org/) -->

<svg
   xmlns:dc="http://purl.org/dc/elements/1.1/"
   xmlns:cc="http://creativecommons.org/ns#"
   xmlns:rdf="http://www.w3.org/1999/02/22-rdf-syntax-ns#"
   xmlns:svg="http://www.w3.org/2000/svg"
   xmlns="http://www.w3.org/2000/svg"
   xmlns:xlink="http://www.w3.org/1999/xlink"
   xmlns:sodipodi="http://sodipodi.sourceforge.net/DTD/sodipodi-0.dtd"
   xmlns:inkscape="http://www.inkscape.org/namespaces/inkscape"
   width="143.53125"
   height="1287.0938"
   id="svg6353"
   version="1.1"
   inkscape:version="0.48.4 r9939"
   sodipodi:docname="New document 7">
  <defs
     id="defs6355">
    <pattern
       patternTransform="translate(291.09152,-105.47045)"
       id="pattern6351"
       xlink:href="#pattern6320"
       inkscape:collect="always" />
    <pattern
       inkscape:collect="always"
       xlink:href="#pattern4784"
       id="pattern6320"
       patternTransform="translate(-323.20089,-1359.7271)" />
    <pattern
       patternUnits="userSpaceOnUse"
       width="143.53125"
       height="1287.0938"
       patternTransform="translate(659.65625,-1254.0128)"
       id="pattern4784">
      <path
         inkscape:connector-curvature="0"
         id="path3972"
         d="m 5.02412,11.3084 10.10153,1270.7719 123.23861,0 -8.08122,-1006.1119 8.08122,-270.7209 z"
         style="fill:url(#linearGradient4787);fill-opacity:1;stroke:#7b4720;stroke-width:10;stroke-linecap:butt;stroke-linejoin:miter;stroke-miterlimit:4;stroke-opacity:1;stroke-dasharray:none" />
      <path
         inkscape:connector-curvature="0"
         id="path4760"
         d="m 97.97955,12.4001 c 0,0 6.04533,210.2578 8.06045,244.96067 2.01512,34.70275 0,77.57086 -4.03023,114.31485 -4.03022,36.74411 8.06046,906.35438 8.06046,906.35438"
         style="color:#000000;fill:none;stroke:#915d34;stroke-width:5.0194993;stroke-linecap:butt;stroke-linejoin:miter;stroke-miterlimit:4;stroke-opacity:1;stroke-dasharray:none;stroke-dashoffset:0;marker:none;visibility:visible;display:inline;overflow:visible;enable-background:accumulate" />
      <path
         inkscape:connector-curvature="0"
         id="path4762"
         d="m 77.77631,12.4034 c 0,0 8.06817,112.4543 4.03408,155.3915 -4.03408,42.9372 -4.03408,94.05279 0,141.07917 4.03409,47.02638 18.15337,969.15263 18.15337,969.15263"
         style="color:#000000;fill:none;stroke:#915d34;stroke-width:5.02594137;stroke-linecap:butt;stroke-linejoin:miter;stroke-miterlimit:4;stroke-opacity:1;stroke-dasharray:none;stroke-dashoffset:0;marker:none;visibility:visible;display:inline;overflow:visible;enable-background:accumulate" />
      <path
         inkscape:connector-curvature="0"
         id="path4766"
         d="m 91.77232,207.8036 c 0,0 -2.85714,48.5714 -2.85714,58.5714 0,10 4.28571,58.5714 4.28571,58.5714"
         style="color:#000000;fill:none;stroke:#915d34;stroke-width:5;stroke-linecap:butt;stroke-linejoin:miter;stroke-miterlimit:4;stroke-opacity:1;stroke-dasharray:none;stroke-dashoffset:0;marker:none;visibility:visible;display:inline;overflow:visible;enable-background:accumulate" />
      <path
         inkscape:connector-curvature="0"
         id="path4768"
         d="m 57.5629,14.4092 c 0,0 8.0735,93.7547 4.03674,128.4031 -4.03674,34.6485 -10.09186,65.2206 -6.05512,87.6402 4.03674,22.4196 6.05512,46.87735 6.05512,83.56397 0,36.68662 22.20211,962.00443 22.20211,962.00443"
         style="color:#000000;fill:none;stroke:#915d34;stroke-width:5.01962614;stroke-linecap:butt;stroke-linejoin:miter;stroke-miterlimit:4;stroke-opacity:1;stroke-dasharray:none;stroke-dashoffset:0;marker:none;visibility:visible;display:inline;overflow:visible;enable-background:accumulate" />
      <path
         inkscape:connector-curvature="0"
         id="path4770"
         d="m 45.42613,1278.0465 c 0,0 -8.08259,-385.72589 0,-437.95956 8.08258,-52.23368 2.02064,-90.40446 -2.02066,-120.53932 C 39.36418,689.41277 29.26095,16.4016 29.26095,16.4016"
         style="color:#000000;fill:none;stroke:#915d34;stroke-width:4.9863987;stroke-linecap:butt;stroke-linejoin:miter;stroke-miterlimit:4;stroke-opacity:1;stroke-dasharray:none;stroke-dashoffset:0;marker:none;visibility:visible;display:inline;overflow:visible;enable-background:accumulate" />
      <path
         inkscape:connector-curvature="0"
         id="path4772"
         d="m 35.3287,1273.9991 c 0,0 -2.0203,-331.33 -8.08122,-377.7971 C 21.18657,849.735 19.16626,789.1259 21.18657,738.6183 23.20687,688.1106 19.16626,15.349 19.16626,15.349"
         style="color:#000000;fill:none;stroke:#915d34;stroke-width:5.02594137;stroke-linecap:butt;stroke-linejoin:miter;stroke-miterlimit:4;stroke-opacity:1;stroke-dasharray:none;stroke-dashoffset:0;marker:none;visibility:visible;display:inline;overflow:visible;enable-background:accumulate" />
      <path
         inkscape:connector-curvature="0"
         id="path4774"
         d="m 33.3084,847.7147 c 0,0 8.08122,-48.4873 6.06091,-64.6497 -2.0203,-16.1625 -6.06091,-38.3858 -6.06091,-48.4874 0,-10.1015 -4.04061,-424.264 -4.04061,-424.264"
         style="color:#000000;fill:none;stroke:#915d34;stroke-width:5.02594137;stroke-linecap:butt;stroke-linejoin:miter;stroke-miterlimit:4;stroke-opacity:1;stroke-dasharray:none;stroke-dashoffset:0;marker:none;visibility:visible;display:inline;overflow:visible;enable-background:accumulate" />
      <path
         inkscape:connector-curvature="0"
         id="path4776"
         d="m 59.57236,1278.0397 c 0,0 -6.06091,-363.6549 -2.0203,-408.1016 4.04061,-44.4467 6.06091,-50.5076 4.04061,-94.9544 C 59.57236,730.537 55.53175,316.3745 51.49114,284.0496 47.45053,251.7247 37.34901,189.0953 43.40992,146.6689 49.47084,104.2425 41.38962,15.349 41.38962,15.349"
         style="color:#000000;fill:none;stroke:#915d34;stroke-width:5.02594137;stroke-linecap:butt;stroke-linejoin:miter;stroke-miterlimit:4;stroke-opacity:1;stroke-dasharray:none;stroke-dashoffset:0;marker:none;visibility:visible;display:inline;overflow:visible;enable-background:accumulate" />
      <path
         inkscape:connector-curvature="0"
         id="path4778"
         d="M 75.7348,405.2679 85.83633,918.4254"
         style="color:#000000;fill:none;stroke:#915d34;stroke-width:5.02594137;stroke-linecap:butt;stroke-linejoin:miter;stroke-miterlimit:4;stroke-opacity:1;stroke-dasharray:none;stroke-dashoffset:0;marker:none;visibility:visible;display:inline;overflow:visible;enable-background:accumulate" />
      <path
         sodipodi:nodetypes="cssssc"
         inkscape:connector-curvature="0"
         id="path4780"
         d="m 126.24243,1273.9991 c 0,0 6.06092,-78.7919 -4.04061,-143.4417 -10.10153,-64.6497 0,-119.198 0,-177.7868 0,-58.5889 0,-66.6701 -4.04061,-103.0356 -4.04061,-36.3655 4.04061,-60.6091 6.06091,-94.9543 2.02031,-34.3452 -0.2451,-72.731 -0.2451,-72.731"
         style="color:#000000;fill:none;stroke:#915d34;stroke-width:5.02594137;stroke-linecap:butt;stroke-linejoin:miter;stroke-miterlimit:4;stroke-opacity:1;stroke-dasharray:none;stroke-dashoffset:0;marker:none;visibility:visible;display:inline;overflow:visible;enable-background:accumulate" />
      <path
         sodipodi:nodetypes="csssc"
         inkscape:connector-curvature="0"
         id="path4782"
         d="m 112.69203,783.4363 c 0,0 9.50979,-186.2394 5.46918,-218.5643 -4.04061,-32.3249 0,-76.7716 0,-123.2386 0,-46.467 6.06091,-248.4975 2.0203,-305.0661 -4.04061,-56.5685 0,-127.2792 0,-127.2792"
         style="color:#000000;fill:none;stroke:#915d34;stroke-width:5.02594137;stroke-linecap:butt;stroke-linejoin:miter;stroke-miterlimit:4;stroke-opacity:1;stroke-dasharray:none;stroke-dashoffset:0;marker:none;visibility:visible;display:inline;overflow:visible;enable-background:accumulate" />
    </pattern>
    <linearGradient
       inkscape:collect="always"
       xlink:href="#linearGradient4752"
       id="linearGradient4787"
       gradientUnits="userSpaceOnUse"
       x1="664.18036"
       y1="2433.2888"
       x2="798.52051"
       y2="2433.2888"
       gradientTransform="translate(-659.65625,-1789.625)" />
    <linearGradient
       id="linearGradient4752">
      <stop
         id="stop4754"
         offset="0"
         style="stop-color:#915737;stop-opacity:1;" />
      <stop
         id="stop4756"
         offset="1"
         style="stop-color:#894e2d;stop-opacity:1;" />
    </linearGradient>
  </defs>
  <sodipodi:namedview
     id="base"
     pagecolor="#ffffff"
     bordercolor="#666666"
     borderopacity="1.0"
     inkscape:pageopacity="0.0"
     inkscape:pageshadow="2"
     inkscape:zoom="0.35"
     inkscape:cx="83.908508"
     inkscape:cy="649.26118"
     inkscape:document-units="px"
     inkscape:current-layer="layer1"
     showgrid="false"
     fit-margin-top="0"
     fit-margin-left="0"
     fit-margin-right="0"
     fit-margin-bottom="0"
     inkscape:window-width="1596"
     inkscape:window-height="880"
     inkscape:window-x="0"
     inkscape:window-y="18"
     inkscape:window-maximized="0" />
  <metadata
     id="metadata6358">
    <rdf:RDF>
      <cc:Work
         rdf:about="">
        <dc:format>image/svg+xml</dc:format>
        <dc:type
           rdf:resource="http://purl.org/dc/dcmitype/StillImage" />
        <dc:title></dc:title>
      </cc:Work>
    </rdf:RDF>
  </metadata>
  <g
     inkscape:label="Layer 1"
     inkscape:groupmode="layer"
     id="layer1"
     transform="translate(-291.09149,105.47039)">
    <rect
       style="fill:url(#pattern6351);stroke:none"
       width="143.53125"
       height="1287.0938"
       x="291.09149"
       y="-105.47039"
       id="rect4800" />
  </g>
</svg>
